<?xml version="1.0" encoding="UTF-8"?><svg id="Layer_1" xmlns="http://www.w3.org/2000/svg" viewBox="0 0 120 48"><path d="M117.21,23.41c-.04-.3-.14-.51-.3-.69-.16-.16-.37-.24-.65-.24-.55,0-.89.31-1,.92h1.95ZM119,26.38c-.28.18-.61.33-1.02.43-.39.1-.81.16-1.24.16-.51,0-.98-.06-1.4-.2s-.77-.33-1.04-.59c-.3-.26-.51-.57-.67-.92-.16-.37-.24-.77-.24-1.22s.08-.83.22-1.2c.14-.35.33-.67.59-.92.26-.26.57-.45.92-.61.35-.14.75-.22,1.18-.22s.79.06,1.12.2.63.31.87.55.41.53.55.87c.12.33.2.73.2,1.16,0,.26-.02.49-.06.67h-3.64c.2.63.73.94,1.61.94.24,0,.49-.04.75-.1.28-.06.51-.14.71-.22l.59,1.22ZM113.13,26.44c-.26.16-.55.3-.89.37s-.69.14-1.02.14c-.49,0-.92-.06-1.3-.2s-.71-.33-.96-.59-.47-.55-.61-.91c-.14-.35-.2-.75-.2-1.2s.08-.83.22-1.2c.16-.35.35-.67.63-.92.28-.26.59-.45.96-.61.37-.14.79-.22,1.24-.22.63,0,1.16.1,1.57.31l-.26,1.63c-.14-.08-.31-.14-.53-.18-.22-.04-.39-.06-.53-.06-.43,0-.77.1-1.02.31-.26.22-.37.51-.37.89s.12.67.37.89.59.31,1.04.31c.14,0,.3-.02.47-.04s.33-.06.47-.12l.71,1.38ZM104.56,25.26c.33,0,.59-.12.81-.33s.31-.51.31-.89-.1-.67-.31-.89-.47-.33-.81-.33-.59.12-.81.33-.31.51-.31.89.1.67.31.89.47.33.81.33M104.02,26.97c-.37,0-.71-.08-1.02-.22s-.57-.33-.79-.61c-.22-.26-.39-.57-.51-.92-.12-.35-.2-.75-.2-1.18s.06-.81.2-1.18c.14-.35.31-.67.55-.94.24-.26.51-.47.83-.63s.65-.22,1.02-.22c.33,0,.65.08.92.22.28.14.49.33.67.61l.02-.65h1.81v5.53h-1.81l-.02-.63c-.16.26-.39.45-.67.59-.31.16-.65.24-1,.24M97.85,25.26c.33,0,.59-.12.81-.33s.31-.51.31-.89-.1-.67-.31-.89-.47-.33-.81-.33-.59.12-.81.33-.31.51-.31.89.1.67.31.89.47.33.81.33M94.91,21.27h1.81l.02.63c.16-.26.39-.45.67-.59s.61-.22.96-.22c.37,0,.71.08,1.02.22s.57.33.79.61c.22.26.39.57.51.92.12.35.2.75.2,1.18s-.06.81-.2,1.18c-.14.35-.31.67-.55.94-.24.26-.51.47-.83.63s-.65.22-1.02.22c-.3,0-.59-.06-.85-.18s-.47-.28-.63-.49v2.89h-1.93v-7.95h.02ZM91.96,22.48c-.39,0-.59.1-.59.31,0,.12.06.2.18.28.12.06.33.14.65.22.67.16,1.16.39,1.46.69s.45.71.45,1.2c0,.55-.22.98-.65,1.3-.43.31-1.04.45-1.85.45-.43,0-.85-.04-1.24-.14s-.73-.24-.96-.39l.63-1.14c.22.08.45.16.73.2.26.06.51.08.73.08.47,0,.69-.12.69-.33,0-.06-.02-.1-.04-.16s-.06-.08-.12-.12c-.06-.04-.14-.08-.26-.1-.1-.04-.24-.08-.41-.12-.33-.08-.63-.18-.87-.3-.24-.12-.43-.26-.59-.39-.16-.16-.26-.31-.33-.51-.08-.2-.1-.41-.1-.67,0-.55.22-.98.63-1.3s1-.47,1.75-.47c.37,0,.75.04,1.1.12.35.08.67.18.91.31l-.2,1.38c-.26-.14-.53-.24-.85-.31-.3-.04-.59-.08-.85-.08M85.77,25.36c.37,0,.65-.12.87-.35.22-.24.33-.55.33-.96s-.12-.71-.33-.96c-.22-.24-.51-.37-.87-.37-.37,0-.65.12-.89.37-.22.24-.33.57-.33.96s.12.73.33.96c.24.22.51.35.89.35M85.77,26.97c-.45,0-.85-.08-1.22-.22-.37-.14-.69-.35-.96-.61-.28-.26-.47-.57-.63-.92-.16-.35-.24-.75-.24-1.18s.08-.81.24-1.16c.16-.35.37-.67.63-.92.28-.26.59-.47.96-.61s.77-.22,1.22-.22.85.08,1.22.22c.37.14.69.35.96.61.28.26.49.57.63.92.16.35.22.75.22,1.18s-.08.81-.24,1.16c-.16.35-.37.67-.63.92-.28.26-.59.47-.96.61-.35.14-.77.22-1.2.22M78.43,21.27h1.87l.02.83c.14-.3.31-.53.55-.69.24-.16.51-.24.83-.24.24,0,.45.04.63.12l-.16,1.83c-.1-.04-.22-.08-.33-.1-.14-.02-.26-.04-.37-.04-.75,0-1.12.49-1.12,1.48v2.38h-1.93v-5.57h.02ZM75.71,23.41c-.04-.3-.14-.51-.3-.69-.16-.16-.37-.24-.65-.24-.55,0-.89.31-1,.92h1.95ZM77.5,26.38c-.28.18-.61.33-1.02.43-.39.1-.81.16-1.24.16-.51,0-.98-.06-1.4-.2s-.77-.33-1.04-.59c-.3-.26-.51-.57-.67-.92-.16-.37-.24-.77-.24-1.22s.08-.83.22-1.2c.14-.35.33-.67.59-.92.26-.26.57-.45.92-.61.35-.14.75-.22,1.18-.22s.79.06,1.12.2.63.31.87.55c.24.24.41.53.55.87.12.33.2.73.2,1.16,0,.26-.02.49-.06.67h-3.64c.2.63.73.94,1.61.94.24,0,.49-.04.75-.1.28-.06.51-.14.71-.22l.59,1.22ZM68.33,23.27l-.92-2.77-.92,2.77h1.85ZM66.37,18.65h2.22l3.19,8.17h-2.26l-.63-1.87h-2.97l-.63,1.87h-2.14l3.23-8.17ZM58.53,22.48c-.39,0-.59.1-.59.31,0,.12.06.2.18.28.12.06.33.14.65.22.67.16,1.16.39,1.46.69s.45.71.45,1.2c0,.55-.22.98-.65,1.3s-1.04.45-1.85.45c-.43,0-.85-.04-1.24-.14s-.73-.24-.96-.39l.63-1.14c.22.08.45.16.73.2.26.06.51.08.73.08.47,0,.69-.12.69-.33,0-.06-.02-.1-.04-.16-.02-.04-.06-.08-.12-.12s-.14-.08-.26-.1c-.1-.04-.24-.08-.41-.12-.33-.08-.63-.18-.87-.3s-.43-.26-.59-.39c-.16-.16-.26-.31-.33-.51s-.1-.41-.1-.67c0-.55.22-.98.63-1.3.41-.31,1-.47,1.75-.47.37,0,.75.04,1.1.12s.67.18.91.31l-.2,1.38c-.26-.14-.53-.24-.85-.31-.3-.04-.57-.08-.85-.08M49.72,21.27h1.89l.02.69c.14-.28.35-.49.63-.63.28-.16.59-.22.96-.22.63,0,1.12.2,1.44.59.33.39.49.98.49,1.75v3.36h-1.93v-3.01c0-.65-.26-.98-.75-.98-.28,0-.47.1-.61.28-.14.18-.22.45-.22.79v2.93h-1.93v-5.55h0ZM46.53,21.27h1.93v5.53h-1.93v-5.53ZM47.52,20.4c-.31,0-.57-.1-.77-.3-.22-.2-.31-.43-.31-.73s.1-.55.31-.75.47-.3.77-.3c.31,0,.57.1.77.3.22.2.31.45.31.75s-.1.55-.31.75c-.22.18-.47.28-.77.28M43.23,18.65h1.93v8.17h-1.93v-8.17ZM40.08,18.65h1.93v8.17h-1.93v-8.17ZM36.22,25.36c.37,0,.65-.12.87-.35.22-.24.33-.55.33-.96s-.12-.71-.33-.96c-.22-.24-.51-.37-.87-.37s-.65.12-.89.37c-.22.24-.33.57-.33.96s.12.73.33.96c.22.22.51.35.89.35M36.22,26.97c-.45,0-.85-.08-1.22-.24-.37-.16-.69-.37-.96-.65s-.49-.59-.65-.96-.24-.77-.24-1.2.08-.81.24-1.16.37-.65.65-.89c.28-.26.59-.43.96-.57.37-.14.79-.2,1.22-.2s.85.08,1.22.22.69.35.96.61c.28.26.49.57.63.92.16.35.22.75.22,1.18s-.08.81-.24,1.16-.37.67-.63.92c-.28.26-.59.47-.96.61-.35.16-.77.24-1.2.24M32.7,26.03c-.37.3-.83.51-1.34.67-.51.16-1.04.22-1.61.22-.65,0-1.24-.1-1.77-.28-.51-.18-.96-.45-1.32-.81-.37-.35-.65-.79-.85-1.32-.2-.51-.3-1.1-.3-1.77,0-.63.12-1.2.33-1.71s.53-.96.92-1.34c.39-.37.87-.67,1.42-.87.55-.22,1.14-.31,1.81-.31.24,0,.47.02.73.04.26.04.49.08.73.14s.45.14.67.22c.22.08.39.18.55.26l-.89,1.67c-.16-.08-.3-.14-.43-.2s-.26-.1-.37-.14-.26-.06-.39-.08-.3-.02-.45-.02c-.73,0-1.32.2-1.73.61-.41.41-.63.98-.63,1.69,0,.33.06.65.16.92.1.28.26.51.45.73.2.2.43.35.71.47.28.12.59.16.92.16s.65-.06.94-.16c.3-.12.59-.28.87-.47l.87,1.67ZM8.85,14.18c.22-.04.43-.08.67-.12l1.04,5.94c-.24.02-.45.06-.67.12l-1.04-5.94ZM8.6,20.73c.22-.16.45-.3.71-.39l-2.99-5.23c-.24.12-.47.26-.69.41l2.97,5.21ZM6.89,24.02c0-.22.02-.45.06-.65H.98c-.02.22-.02.41-.02.63,0,.2,0,.39.02.59h5.96c-.04-.18-.06-.37-.06-.57M14.97,24.02c0,2.22-1.81,4.03-4.03,4.03-2.01,0-3.66-1.46-3.97-3.36l-5.61,2.05c.12.43.28.87.45,1.28l5.57-2.05-4.55,3.84c.3.41.61.79.94,1.14l4.25-3.6-2.77,4.86c.43.31.91.59,1.4.81l2.6-4.56-.91,5.19c.55.16,1.14.26,1.73.3l.85-4.86.85,4.86c.61-.06,1.22-.16,1.81-.31l-.79-4.51,2.28,3.95c.63-.28,1.22-.63,1.75-1.02l-2.09-3.64,3.19,2.7c.51-.51.96-1.06,1.36-1.65l-2.85-2.4,3.48,1.28c.31-.67.57-1.38.75-2.12l-3.07-1.12h3.25c.04-.37.06-.75.06-1.14,0-.45-.04-.89-.08-1.32h-6.08c.16.49.24.94.24,1.4M6.98,23.11c.08-.35.22-.69.37-1l-5.61-2.07c-.14.33-.26.67-.37,1.02l5.61,2.05ZM18.43,17.41l-4.56,3.86c.12.12.22.24.31.37l4.56-3.86c-.1-.14-.2-.26-.31-.37M16.17,15.46c-.16-.1-.31-.2-.49-.3l-2.99,5.21c.18.08.33.18.49.28l2.99-5.19ZM8.18,21.07l-4.58-3.88c-.22.24-.41.47-.61.73l4.56,3.86c.2-.26.39-.49.63-.71M11.33,20.01c.2.02.41.06.59.1l1.04-5.94c-.2-.04-.39-.08-.59-.1l-1.04,5.94Z"/></svg>