<?xml version="1.0" encoding="UTF-8"?><svg id="Layer_1" xmlns="http://www.w3.org/2000/svg" viewBox="0 0 120 48"><path d="M58.8,41.58c-.11,0-.31-.04-.45-.05-5.38-.48-10.33-3.58-13.22-8.08l-6.37-.04-2.36-2.34-.08-.16h7.4l.05-.1-.94-2.82h-9.47s-2.41-2.35-2.41-2.35l-.08-.16h11.51v-2.93h-14.53l-2.48-2.51h17.47l.96-2.93h-21.39l-2.35-2.35-.08-.16h25.13c2.3-3.55,5.78-6.23,9.86-7.44,7.53-2.25,15.66.83,19.85,7.39l.11.05h25.13s0,.05,0,.05l-2.48,2.45h-21.39l.96,2.93h17.47l-2.48,2.51h-14.53v2.93h11.57l-2.35,2.38-.2.12-9.46.02-.92,2.93h7.43l-.08.16-2.36,2.34-6.34.02c-2.66,4.05-6.85,6.99-11.67,7.87l-2.2.28c-.72-.03-1.47.04-2.19,0ZM71.05,13.81c-8.01-8.68-22.41-5.2-25.59,6.09s7.19,21.7,18.49,18.63c10.85-2.95,14.77-16.41,7.1-24.72Z"/><polygon points="50.22 20.02 52.25 26.27 54.34 20.02 56.61 20.02 56.61 27.97 55.01 27.97 55.01 22.21 53.16 27.92 51.41 27.98 49.5 22.21 49.5 27.97 47.95 27.97 47.95 20.02 50.22 20.02"/><polygon points="63.79 20.02 66.97 25.73 66.97 20.02 68.57 20.02 68.57 27.97 66.62 27.97 63.45 22.32 63.45 27.97 61.92 27.97 61.84 27.89 61.84 20.1 61.92 20.02 63.79 20.02"/><rect x="58.42" y="20.02" width="1.66" height="7.95"/><rect x="70.34" y="20.02" width="1.66" height="7.95"/></svg>