<?xml version="1.0" encoding="UTF-8"?><svg id="Layer_1" xmlns="http://www.w3.org/2000/svg" viewBox="0 0 120 48"><path d="M103.91,21.53v1.73h13.64v1.48h-13.64v1.73h13.64v1.47h-15.38v-7.88h15.38v1.47h-13.64ZM98.39,23.25h-10.54v-3.2h-1.73v7.88h1.73v-2.94h10.54v2.94h1.74v-7.88h-1.73v3.2ZM69.81,21.8v4.4c0,.96.77,1.75,1.73,1.75,0,0,0,0,0,0h12.56v-1.74h-12.32c-.12,0-.21-.09-.23-.2v-3.97c.02-.14.14-.25.28-.24h12.27v-1.73h-12.53c-.97,0-1.75.77-1.76,1.74h0ZM65.99,23.26h-11.06c-.15,0-.28-.11-.29-.26,0,0,0,0,0,0h0v-1.2c0-.15.12-.28.28-.28h12.57v-1.47h-12.87c-.96.01-1.72.79-1.71,1.75v1.18c0,.97.78,1.75,1.75,1.75h11.06c.15,0,.28.11.29.27,0,0,0,0,0,0h0v1.19c0,.15-.13.27-.28.27h-12.59v1.47h12.86c.96,0,1.75-.77,1.75-1.74h0v-1.18c0-.97-.79-1.75-1.75-1.75h0ZM50.89,27.9v.02h-1.74v-.31c0-.97-.78-1.75-1.75-1.75h-9.66v2.07h-1.73v-7.88h13.13c.96,0,1.74.78,1.74,1.74h0v1.71c0,.94-.74,1.72-1.68,1.75,1.03.48,1.69,1.51,1.69,2.65h0ZM49.14,22.09c0-.16-.13-.3-.3-.3h-11.11v2.34h11.14c.15-.01.27-.14.26-.29h0v-1.75ZM33.91,21.8v4.4h0c0,.96-.77,1.74-1.73,1.74h-11.1c-.97,0-1.75-.77-1.76-1.74h0v-4.4c0-.97.79-1.75,1.76-1.74h11.11c.95.01,1.71.79,1.71,1.74h0ZM32.18,22.09c0-.16-.14-.3-.3-.3h-10.53c-.14,0-.27.1-.28.24v3.96c.01.11.11.2.23.2h10.61c.15,0,.28-.13.28-.29v-3.82ZM17.29,21.8v2.32c0,.96-.78,1.74-1.74,1.74H4.18v2.08h-1.73v-7.88h13.08c.96,0,1.74.77,1.75,1.73,0,0,0,0,0,0h0ZM15.55,22.09c0-.16-.13-.3-.3-.3H4.19v2.34h11.1c.15,0,.27-.14.26-.29v-1.75Z"/></svg>