<?xml version="1.0" encoding="UTF-8"?><svg id="Layer_1" xmlns="http://www.w3.org/2000/svg" viewBox="0 0 120 48"><path d="M45.06,3.88l29.94.07.13.46-.04,39.38c-.08.25-.34.34-.59.34l-29.42-.04-.21-.13V4.03s.19-.15.19-.15ZM57.03,7.73h-2.65c-.52,0-1.3.61-1.54,1.07l-5.99,17.97h1.98c.53,0,1.37-1.01,1.51-1.52,1.94-4.95,3.09-10.42,5.03-15.35.22-.56.45-1.12.82-1.6l.84-.57ZM61.41,7.73h-2.65c-.09,0-.69.23-.8.3-.97.62-1.48,2.69-1.86,3.78-1.44,4.23-2.59,8.93-4.23,13.03-.22.56-.5,1.24-.99,1.62-.16.12-.42.14-.5.3h2.9c.31,0,1.24-.91,1.34-1.26l5.28-16.02c.23-.54.52-1.08,1-1.45.16-.12.42-.14.5-.3ZM65.78,7.73h-2.65c-.68,0-1.53.83-1.74,1.46l-5.22,15.83-.66,1.2-.76.55h2.82c.53,0,1.37-1.01,1.51-1.52,2.01-4.98,3.09-10.68,5.11-15.6.19-.47.44-.93.74-1.34l.84-.57ZM63.18,16.16h5.26s.5.14.58.18c.16.07.57.52.55.21-.64-1.06-.92-3.17-2.39-3.33-.95-.1-2.05.08-3.02,0l-.98,2.95ZM61.83,20.45h8.46s.38.12.44.15c.07.03.6.53.53.23-.08-.34-.93-2.12-1.14-2.48-.41-.69-.99-.88-1.76-.93-1.77-.13-3.69.11-5.48,0l-.13.06-.92,2.98ZM60.52,24.75h11.61c.11,0,.75.44.84.59.06.01.05-.08.04-.12-.13-.43-1.02-2.31-1.27-2.68-.36-.53-.83-.76-1.46-.82-2.77-.24-5.87.19-8.67,0l-.21.04-.97,2.82.09.17ZM55.35,37.72c-.63-1.98-1.2-3.99-1.93-5.94-.12-.33-.46-1.4-.6-1.59-.1-.13-.14-.12-.28-.14-.52-.06-1.93-.06-2.45,0-.09.01-.18,0-.25.09l-2.56,7.58h2.31l.43-1.44,2.51.02.52,1.42h2.31ZM58.21,30.05h-2.19v6.19c0,.2.35.85.51,1s.85.47,1.04.47h3.91l-.33-1.73c-.51-.16-2.57.17-2.82-.21-.02-.03-.13-.35-.13-.37v-5.35ZM62.46,30.05l-.13.13v7.41l.13.13h3.7c3.53,0,4.12-5.79,1.47-7.2-.27-.14-1.12-.46-1.39-.46h-3.79ZM72.6,30.05h-2.19v7.66h2.19v-7.66Z"/><path d="M64.61,31.74c1.45-.1,2.35.25,2.44,1.81.12,1.87-.52,2.62-2.44,2.49v-4.3Z"/><path d="M52.24,34.6h-1.85l.84-3.03c.12,0,.13.12.17.21.38.83.57,1.94.84,2.82Z"/></svg>