<?xml version="1.0" encoding="UTF-8"?><svg id="Layer_1" xmlns="http://www.w3.org/2000/svg" viewBox="0 0 120 48"><path d="M46.86,37.23c-3.85,3.15-27.09,4.89-18.44-14.05-2.07-8.6,5.79-10.58,8.98-10.4.92-5.92,13.6-9.95,21.01-2.77,2.57-1.19,5-.9,7.5.27,9.14-5.52,19.77.18,21.55,5.94,2.84.07,11.15,7.03,1.49,15.33-1.24,3.18-3.69,8.85-12.5,6.15-2.5,3.31-9.8,6.42-14.79,1.82-4.8,1.87-10.4,2.45-14.79-2.3h0Z" fill="#1f1b20" fill-rule="evenodd"/><path d="M32.34,23.38c-7.93,6.8,1.71,18.6,15.74,11.08,3.36,4.71,10.63,4.68,13.92,2.16,4.48,5.49,11.93,2,12.83-1.96,5.2,3.78,10.88-.81,11.15-4.66,3.76-.38,7.32-10.83-1.49-12.7-.81-5.94-12.63-10-18.78-5.07-1.1-.86-4.71-2.32-7.77.27-.92-3.02-13.6-9.41-19.18,2.63-2.21-1.98-10.56,2.25-6.42,8.24h0Z" fill="#1f1b20" fill-rule="evenodd"/><path d="M35.82,31.49c.48-4.12,1.51-8.34,3.07-12.46-.82.24-2.29-.3-2.16-2.03,1.89.14,3.68-.68,5.57-.54,4.47-.18,5.06,4.1,4.9,6.35.12,4.95-4.24,8.93-8.04,9.29-1.11.2-2.26,0-3.34-.61h0Z" fill="#1f1b20" fill-rule="evenodd"/><path d="M40.95,18.59c-.84,3.79-2.26,7.59-3.04,11.48,6.29-.62,6.88-5.53,7.03-6.62.02-2.06-.16-5.61-3.99-4.86Z" fill="#fff"/><path d="M55.19,22.21c-1.08.61-1.34,1.87-1.55,2.65,1.9-.44,1.86-2.41,1.55-2.65Z" fill="#fff"/><path d="M78.21,21.12c-1.14.55-1.29,1.71-1.69,2.57,2.15-.18,2-2.62,1.69-2.57Z" fill="#fff"/><path d="M57.94,27.61c1.62-.5,3.04-5.31,2.74-5.84-1.93.97-3.07,5.21-2.74,5.84Z" fill="#fff"/><path d="M83.75,17.91c-1.01-3.24-8.17-11.21-18.04-4.66-1.51-1.22-4.5-2.09-7.97,0-1.89-3.9-13.92-8.2-18.85,2.7-2.45-1.35-9.3,1.55-5.94,7.5-2.63,1.91-2.61,4.62-2.22,6.22,1.98,8.27,12.74,7.11,17.76,3.85,5.63,6.71,12,3.08,13.44,2.09,6.48,6.82,12.63-.2,12.77-2.03,6.76,4.44,10.67-1.73,10.94-4.32,4.1-.81,5.83-10-1.89-11.35ZM74.02,17.73c.14-.64.59-1,1.08-1s.88.46.88,1.03-.9,1.2-1.38,1.2-.71-.6-.57-1.23ZM39.16,32.1c-1.11.2-2.26,0-3.34-.61.48-4.12,1.51-8.34,3.07-12.46-.82.24-2.29-.3-2.16-2.03,1.89.14,3.68-.68,5.57-.54,4.47-.18,5.06,4.1,4.9,6.35.12,4.95-4.24,8.93-8.04,9.29ZM49.84,23.76c-.68,2.12-1.04,4.28-1.28,6.42-.64.11-1.49.23-1.86-.27h0c.41-3.14,1.28-6.28,1.93-9.42l.95.1c.54.1.7.73.68,1.11.43-.94.87-1.13,1.32-1.08,1.26.08,1.18,1.68.57,2.54-1.48-.28-1.55-.23-2.3.6ZM55.54,27.53c-.18.52.33,2.05-2.47,2.16-1.27-.05-1.84-.62-1.93-2.13.11-1.71.67-3.36,1.69-5.18.19-.38.8-2.02,2.8-2.08,2.17.02,1.9,6.21-2.5,5.84l-.07.88c.13,1.99,1.66.62,2.47.51ZM59.06,29.02l-.07-.68c-6.07,5.35-1.4-12.2,4.02-7.43-.8,2.62-2.04,5.21-2.09,8.38-.65.08-1.31.19-1.86-.27ZM67.91,28.72c-.06-2.11,1.44-5.26,1.05-6.32-1.05.35-1.86,4.48-2.23,6.72-.59.03-1.24.17-1.76-.2-.15-2.15,1.87-6.23.98-6.45-.31-.5-1.74,3.4-2.27,6.81h0c-.61.17-1.24.19-1.85-.12.34-3.05,1.49-6.03,2.23-9.05.74,0,1.79.24,1.72,1.32h.17c1.15-2.97,3.14-1.11,2.63-.2h.27c2.17-3.04,2.83-.68,2.77-.34-.93,2.66-1.73,5.31-1.99,8.01-.57.18-1.15.09-1.72-.17ZM74.73,27.47c-1.25,1.62-4.02,1.99-3.85-.2l1.82-6.21c.75-1.11,1.44-1.11,2.26-1.01h0s0,0,0,0h0c-1.17,2.79-2.98,7.31-1.38,6.96l.91-.64c-.51-3.57,2.4-7.04,3.95-7.16,3.37.5.82,6.36-2.26,5.84-.33,1.54-.25,2.07,1.76,1.99.15,1.36-2,2.29-3.21.44ZM84.77,21.83h-.56v1.42h-.39v-1.42h-.57v-.29h1.52v.29ZM82.36,21.25c-.75.59.59,2.41.68,4.19-.05,2.4-1.58,3.04-2.87,3.34-1.88.29-2.27-2.93-1.28-3.17.41-.32.78-.19,1.11.07-.83.65-.38,1.51.14,1.55,1.68-.14.55-3.85.27-5.78.26-3.22,3.66-2.69,4.63-1.96.03.48-.03.87-.2,1.25-.86.07-1.58-.51-2.47.51ZM86.85,23.25h-.36v-1.34s-.38,1.34-.38,1.34h-.37l-.37-1.34v1.34h-.36v-1.7h.58l.34,1.16.34-1.16h.58v1.7Z" fill="#fff"/><path d="M41.49,15.11l-1.01-1.01c6.69-8.58,14.52-3.04,16.82-.81l-.74,1.22c-2.32-2.7-10.65-5.61-15.06.61h0ZM67.43,14.63l-.34-1.62c3.81-2.9,8.08-1.42,10.61-.61l.07.54c-3.58-.52-7.03-.43-10.34,1.69ZM77.67,33.24v1.15c2.68,1.05,6.81-1.82,7.13-4.56-2.21,2.08-4.48,3.76-7.13,3.41ZM73.58,34.97l-.61-.91c-1.97,2.17-6.74,4.08-9.12,1.76l-.3.2c3.48,4.31,8.78.55,10.03-1.05h0ZM59.02,36.18l-.3-.84c-2.57.41-5.74.54-7.8-1.32l-.2.41c1.86,3.22,6.45,2.72,8.31,1.76h0ZM43.96,34.7l-.41-.47c-2,.66-10.93,1.46-10.98-6.82l-1.69.78c.34,8.12,9.96,8.4,13.07,6.52Z" fill="#c5c6c6" fill-rule="evenodd"/></svg>