<?xml version="1.0" encoding="UTF-8"?><svg id="Layer_1" xmlns="http://www.w3.org/2000/svg" viewBox="0 0 120 48"><g id="_7Rli4f.tif"><path d="M95.37,19.53h-.9s-.73-.79-.73-.79v-5.25h.88v4.94c0,.14.56.48.76.35v.75Z"/><polygon points="63.75 13.8 63.75 14.68 60.54 14.68 60.54 16.19 63.37 16.19 63.37 17.07 60.54 17.07 60.54 18.65 63.75 18.65 63.75 19.53 59.59 19.53 59.59 13.8 63.75 13.8"/><path d="M60.55,24.41c.23.18,1.92.09,2.33.22l.83.81.02,1.46-.87.96-2.73.02c-.06-.02-.8-.81-.84-.87-.08-.16.47-.54.57-.69.24.18.52.65.82.69.22.03,1.53.03,1.69-.02.14-.04.41-.37.43-.52.08-.62,0-.97-.67-1.04-.49-.05-1.71,0-2.05-.22-.07-.05-.66-.72-.68-.77v-1.31c.18-.26.7-1,1.02-1.04.69-.09,1.6.06,2.32.02l.83.87c.05.18-.46.55-.57.69l-.71-.68c-.14-.04-1.47-.03-1.59.02-.03.01-.37.34-.38.37-.17.3-.06.81.21,1.02Z"/><path d="M75.97,26.13h-2.71c-.07.48.04.68.36,1.01h1.23c.15-.06.42-.66.61-.54l.43.56-.62.7-1.98.03c-.17-.03-.88-.79-.91-.98v-2.26s.75-.88.75-.88l1.97-.02.86.9v1.48ZM75.09,25.38c.1-.88-.58-.95-1.3-.88-.47.05-.58.46-.53.88h1.83Z"/><path d="M92.6,19.53h-.82c-.01-.18.02-.36,0-.54-.03-.39-.13-.05-.22.03-.16.17-.33.34-.52.49h-1.36c-.09-.21-.5-.45-.58-.62-.05-.12-.06-.95-.02-1.09.01-.03.43-.53.46-.55.32-.2,2.13-.12,2.18-.29.07-.3-.07-.78-.41-.84-.13-.02-1.03-.02-1.12,0s-.27.39-.42.47c-.16.08-.48-.41-.63-.51l.63-.69,2.1-.02.74.77v3.37ZM91.71,17.77c-.35.07-1.31-.02-1.57.1-.3.13-.29.84.09.91.14.03.73.02.85-.03.16-.07.8-.8.63-.97Z"/><path d="M68.09,27.89h-.76s-.03-.69-.03-.69l-.7.68h-1.37c-.1-.21-.61-.57-.66-.73s-.04-.92.05-1.06c.03-.05.57-.57.61-.58l1.97-.14c0-.29.08-.65-.22-.82-.15-.08-1.08-.1-1.25-.05-.14.04-.46.49-.52.49l-.53-.59.63-.64,2.1-.02.67.71v3.43ZM67.21,26.13l-1.53.07c-.33.2-.31.81.07.92.11.03.76.04.86,0,.07-.02.8-.8.61-1Z"/><path d="M70.74,17.77h-2.65c-.19,1.23.71,1.02,1.6,1l.51-.55.52.6-.62.69-2.05.03c-.13-.03-.83-.8-.85-.91v-2.32s.75-.88.75-.88l1.91-.02.86.84v1.54ZM69.86,17.07c.07-.26-.07-.79-.31-.91-.11-.06-1.04-.06-1.13,0-.02.01-.27.33-.28.35-.08.17-.02.39-.03.57h1.76Z"/><path d="M80.38,29.65l.03-.76c.1-.14.54.02.76-.12.18-.11.41-.76.41-.98l-1.45-4.06.91.06,1.01,2.9.98-2.96h.88l-1.79,5.16c-.06.12-.57.75-.63.75h-1.1Z"/><path d="M71.81,22.61h-.91s-.25.24-.27.3c-.07.23.02.59-.01.84h1.2v.75h-1.2v3.4h-.88v-3.3c-.12-.2-.88-.03-.95-.09v-.76h.95v-1.1c0-.05.65-.75.72-.79.14-.08,1.2-.1,1.3-.03l.06.79Z"/><path d="M77.48,13.8v1.57h1.1c.15.18.15.65,0,.82h-1.1v2.17s.3.32.36.33c.2.06.65-.05.78.04l.06.79h-1.29l-.79-.79v-2.55h-.94v-.82h1.01l.13-1.57h.69Z"/><path d="M72.89,18.7c.05.03,1.04.03,1.14,0,.14-.04.46-.49.52-.49l.53.54-.67.76-1.91-.02-.81-.89v-2.3s.85-.91.85-.91h1.8s.67.66.67.66c.03.11-.33.57-.44.62-.2.1-.4-.38-.5-.44-.08-.05-1.05-.06-1.15-.02-.03.01-.33.37-.34.41-.04.13-.04,1.45-.01,1.62,0,.05.3.45.33.46Z"/><path d="M87.35,16.21h-1.14c-.06.02-.3.31-.32.37-.06.14-.07,1.57-.02,1.71.01.04.31.4.34.41.1.03.86.03,1,.01.27-.04.42-.34.63-.51l.53.59-.67.72-1.91-.02-.81-.89.02-2.34c.3-.21.58-.84.94-.89.21-.03,1.61-.02,1.73.04.1.05.65.62.62.74l-.47.54-.48-.48Z"/><path d="M78.23,22.17v1.48l.09.09h1.1v.75h-1.13v2.23s.3.32.36.33c.15.04.75-.02.77.01v.82h-1.23l-.77-.8-.02-2.49c-.07-.2-.74-.06-.94-.1v-.76h.91c.06-.04.08-.09.09-.16.05-.26.01-1.23.12-1.38l.64-.04Z"/><path d="M65.7,13.49v4.94c0,.27.52.43.76.35v.76h-.91l-.72-.79v-5.25h.88Z"/><path d="M79.68,15.37h.75s.1.82.1.82c.13-.17.56-.71.73-.79.21-.09.58,0,.82-.03v.88h-.91s-.6.62-.6.66v2.61h-.88v-4.15Z"/><rect x="82.96" y="15.37" width=".88" height="4.15"/><polygon points="61.98 30.54 61.98 30.85 59.59 30.85 59.59 32.27 59.69 32.36 61.73 32.36 61.73 32.67 59.59 32.67 59.59 34.56 59.28 34.56 59.28 30.54 61.98 30.54"/><path d="M66.75,31.68c.12-.04,1.11-.04,1.23,0,.06.02.41.36.42.4l-.21.21c-.24-.37-.87-.39-1.27-.31-.15.03-.32.27-.35.41-.12.72,1.06.44,1.45.56.09.03.43.34.47.41.22.48-.12.84-.41,1.16l-1.47.02-.42-.47.21-.21c.14.07.26.32.4.36.12.04.86.04.99.01.13-.02.39-.28.41-.41.14-.81-1-.5-1.44-.64s-.63-.62-.5-1.05c.02-.07.4-.45.47-.47Z"/><path d="M70.05,30.54v1.13h.94v.31h-.94v1.86s.3.32.36.33c.17.05.4,0,.59.01l-.06.35c-.07.05-.55.04-.65.01-.05-.01-.55-.48-.55-.52v-2.04h-.69s0-.31,0-.31h.65s.11-.14.11-.16v-.98h.25Z"/><path d="M64.19,31.67h.32s0,.63,0,.63c.4-.28.55-.77,1.13-.63v.38c-.18.02-.4-.04-.57.03-.04.02-.57.59-.57.63v1.86h-.31v-2.89Z"/><rect x="62.8" y="31.67" width=".31" height="2.89"/><path d="M83.84,13.49v1.01h-.88v-.91c.22-.19.6-.06.88-.09Z"/><rect x="62.8" y="30.35" width=".32" height=".63"/></g><path d="M28.85,21.92c-1.41,0-2.81,0-4.22,0,.8-5.23,4.34-9.74,9.31-11.62,6.29-2.39,13.38-.15,17.2,5.31,2.12,3.04,3,6.78,2.53,10.46-8.27,0-16.55-.01-24.82,0-.09-1.11-.09-3.04,0-4.15,6.8-.13,13.6-.18,20.4-.15-2.26-9.47-14.82-11.17-19.46-2.33-.38.73-.69,1.51-.8,2.33l-.14.16Z"/><path d="M28.85,26.07c.08,1.01.76,2.52,1.3,3.39,3.9,6.35,12.9,6.72,17.38.82h4.82c-2.3,4.98-7.35,8.23-12.85,8.37-.23,0-.46,0-.69,0-7.13-.16-13.21-5.51-14.11-12.58,1.38,0,2.77,0,4.16,0Z"/></svg>