<?xml version="1.0" encoding="UTF-8"?><svg id="Layer_1" xmlns="http://www.w3.org/2000/svg" viewBox="0 0 120 48"><path d="M10.11,15.47c6.54-.15,10.81,6.79,7.75,12.59-2.96,5.61-10.9,6.03-14.53.84-3.87-5.52.04-13.27,6.78-13.42ZM11.78,20.66h-4.81l-.77,1.23h4.9l.67-1.23ZM16.62,26.6l-3.83-5.88c-.12-.03-.07.03-.1.08-.94,1.54-1.9,3.08-2.9,4.58h-3.16l.72-1.09,1.92-.04.74-1.2h-4.51l-.77,1.23h.98l-1.41,2.33h6.22l2.24-3.55c.09-.02.1.01.15.06.24.25.48.81.71,1.1h-.72s-.69,1.23-.69,1.23h2.18l.77,1.16h1.47Z"/><polygon points="32.01 19.06 32.01 20.84 26.55 20.84 26.55 23.29 30.97 23.29 30.97 25.07 26.55 25.07 26.55 27.64 32.01 27.64 32.01 29.42 24.53 29.42 24.53 19.06 32.01 19.06"/><path d="M101.96,29.42h-2.15l-.99-2.2-4.32-.05-1.16,2.24h-1.99l5.3-10.79,5.3,10.79ZM98.04,25.62l-1.34-2.86-.17-.14-1.38,3h2.88Z"/><path d="M43.29,26.3h-5.7c.21,1.35,2.09,2.08,3.18,1.31.09-.06.37-.39.4-.39h1.99c-1.21,3.4-6.56,2.93-7.39-.49-.73-3.02,1.86-5.58,4.86-4.67,1.3.39,2.65,1.9,2.65,3.29v.95ZM37.59,25.01h3.65c.14-.08.02-.26-.04-.39-.76-1.76-3.19-1.4-3.61.39Z"/><path d="M64.73,21.9c5.32-.55,5.91,7.13.96,7.63-5.3.54-5.91-7.13-.96-7.63ZM64.79,23.62c-2.38.35-2.16,4.52.65,4.27,2.65-.24,2.44-4.71-.65-4.27Z"/><path d="M76.82,29.42h-1.84v-4.75c0-.07-.15-.39-.19-.48-.56-1.12-2.22-1.08-2.78.03-.03.06-.16.3-.16.33v4.87h-1.84v-7.42h1.84v.92c1.2-1.56,3.91-1.41,4.69.49.07.16.28.81.28.95v5.06Z"/><path d="M118.08,24.52h-1.72c-.04-.73-.83-1.24-1.51-1.28-1.13-.07-1.67.92-.45,1.43,1.12.47,3.32.56,3.71,1.99.37,1.33-.51,2.37-1.75,2.73-1.95.56-4.4-.31-4.6-2.54h1.66c.14,1.03,1.29,1.5,2.22,1.27.86-.21,1.01-.94.15-1.34-1.2-.57-3.43-.52-3.82-2.13-.32-1.33.5-2.34,1.76-2.66,1.92-.48,4.06.42,4.34,2.53Z"/><path d="M51.57,24.89h-1.9c-.84-2.15-3.84-1.46-3.87.83s3.02,3.07,3.87.89h1.9c-.86,4.18-7.25,3.79-7.54-.52-.34-4.91,6.46-5.78,7.54-1.2Z"/><path d="M88.23,24.89h-1.9c-.83-2.11-3.79-1.5-3.87.76-.08,2.38,2.96,3.15,3.87.95h1.9c-.51,2.22-2.66,3.39-4.84,2.79-3.62-1-3.65-6.27-.05-7.34,2.2-.65,4.39.61,4.89,2.83Z"/><path d="M109.2,19.92v2.08h2.21v1.59h-2.12l-.09.09v3.37c0,.27.37.7.64.7h1.56v1.65h-2.05c-.95,0-1.96-.8-1.93-1.81v-7.2s1.78-.49,1.78-.49Z"/><path d="M54.02,22.01h2.15v1.59h-2.15v3.59c0,.19.43.58.64.58h1.5v1.65h-1.99c-.91,0-1.9-.72-1.93-1.68v-7.29s1.78-.59,1.78-.59v2.14Z"/><polygon points="34.77 29.42 32.93 29.42 32.93 19 34.77 18.45 34.77 29.42"/><path d="M61.19,21.88v1.78c-.69-.18-1.58.14-2.01.72-.09.12-.38.67-.38.79v4.26h-1.84v-7.42h1.84v1.29c.56-.86,1.27-1.54,2.39-1.41Z"/><path d="M106.74,21.88v1.78c-.85-.2-1.77.2-2.2.96-.08.15-.26.58-.26.72v4.08h-1.78v-7.42h1.78v1.29c.15.03.1-.02.14-.08.16-.23.28-.49.47-.69.47-.48,1.17-.7,1.84-.64Z"/><rect x="77.93" y="22.01" width="1.84" height="7.42"/><path d="M78.52,18.71c1.54-.31,2.03,1.7.83,2.24-1.69.76-2.33-1.93-.83-2.24Z"/></svg>