<?xml version="1.0" encoding="UTF-8"?><svg id="Layer_1" xmlns="http://www.w3.org/2000/svg" viewBox="0 0 120 48"><g id="XqQZBg.tif"><polygon points="61.36 3.65 60.32 5.75 62.43 4.76 62.43 7.35 60.32 6.32 61.36 8.42 58.76 8.42 59.79 6.32 57.69 7.35 57.69 4.76 59.79 5.75 58.76 3.65 61.36 3.65"/><path d="M56.85,44.35h-.15c-1.23-.07-1.76-.73-1.84-1.93-.1-1.64.08-3.22,2.12-3.08,1.79.12,1.76,1.84,1.66,3.23-.07,1.06-.7,1.75-1.8,1.78ZM56.57,40.27c-.37.06-.57.32-.62.68s-.06,1.36-.01,1.74c.11.92,1.4.98,1.62.14.1-.39.1-1.73-.04-2.1-.15-.39-.55-.51-.94-.45Z"/><path d="M32.54,44.35h-.15c-1.34-.09-1.77-.82-1.84-2.08-.07-1.35.04-2.82,1.7-2.93.76-.05,1.55.16,1.89.91.27.59.28,2.26.1,2.88-.22.77-.83,1.2-1.64,1.19l-.06.04ZM32.26,40.27c-.28.05-.49.22-.58.5-.12.36-.11,1.86.03,2.21.25.61,1.32.57,1.52-.08.11-.36.11-1.79-.02-2.14-.15-.42-.53-.55-.96-.48Z"/><path d="M23.71,44.35c-.13,0-.37-.06-.5-.09-.77-.18-1.1-.83-1.02-1.59h.99c-.19,1.01,1.52,1.06,1.29.07-.09-.39-1.16-.57-1.52-.77-1.26-.71-.92-2.49.59-2.62,1.03-.09,1.9.35,1.85,1.49h-1.01c-.1-.17-.04-.35-.23-.5-.56-.45-1.42.34-.67.79.68.4,1.71.32,1.96,1.29.29,1.08-.34,1.86-1.43,1.94-.09,0-.21,0-.31,0Z"/><path d="M103.36,44.35c-.14-.01-.36-.05-.5-.09-.77-.18-1.09-.84-1.02-1.59h.99c-.2,1.14,1.76.9,1.26-.01-.27-.5-1.57-.41-2.05-1.24-.4-.7-.15-1.66.63-1.95,1.07-.4,2.49.03,2.38,1.37h-1.03c.07-.9-1.45-.75-1.12.07.12.3,1.18.53,1.51.7.53.27.71.64.75,1.22v.11c-.08.09-.02.24-.05.35-.09.45-.44.79-.86.94-.19.07-.39.06-.58.12-.1,0-.21,0-.31,0Z"/><path d="M94.57,44.35c-1.19-.09-1.72-.78-1.8-1.93-.08-1.3-.03-2.95,1.62-3.08,1.17-.09,2.04.5,2.08,1.72h-1.03c.04-.89-1.26-1.12-1.54-.34-.11.3-.1,1.6-.06,1.96s.26.67.63.71c.58.06.92-.18.97-.76h.97c.14,0-.06.63-.09.71-.27.66-.91.99-1.61,1.01h-.15Z"/><path d="M44.73,44.35c-1.28-.1-1.73-.85-1.8-2.05-.08-1.31.02-2.85,1.66-2.96,1.17-.08,2,.52,2.05,1.72h-1.03c.04-.88-1.25-1.13-1.54-.33-.11.3-.11,1.86-.01,2.17.2.62,1.1.69,1.43.17.1-.15.06-.31.18-.43h.92c.13,0-.03.55-.06.63-.23.68-.87,1.07-1.58,1.05l-.06.04h-.15Z"/><path d="M55.2,19.2v.99h1.49v-.99h1.15v2.68h4.43v-2.68h1.15v.99h1.49v-.99h1.15v15l-.06.06h-1.62v-6.4c0-.13-.08-.46-.13-.6-.48-1.69-2.74-2.91-4.18-3.7-.13,0-1.25.68-1.45.8-1.08.68-2.89,2.03-2.89,3.46v6.38l-.06.06h-1.57l-.06-.06v-15h1.15Z"/><path d="M50.23,20.06c.07-.56.72-.92,1.07-1.3l-.02-.06c-.9-.55-.26-1.91.74-1.58.72.24.78,1.27.12,1.6.31.37.9.69,1.04,1.17.01.05.06.29.06.32v15.73h-3.02v-15.88Z"/><path d="M69.88,35.94h-3.02v-15.8s.07-.27.1-.32c.17-.44.68-.7.97-1.06.01-.07-.15-.14-.21-.21-.59-.7.08-1.72.93-1.43.71.24.81,1.2.17,1.58l-.02.06c.01.06.72.65.84.81.06.08.23.42.23.5v15.88Z"/><path d="M56.58,27.82c.1-.93,1-1.75,1.71-2.27.21-.16,1.64-1.08,1.78-1.07,1.07.62,2.46,1.34,3.11,2.43.13.21.35.71.35.95v4.62l-.06.06h-1.57l-.06-.06v-3.78s-.08-.28-.1-.32c-.26-.74-1.04-1.26-1.72-1.59-.61.34-1.29.76-1.6,1.41-.05.1-.18.42-.18.51v3.78l-.06.06h-1.57l-.06-.06v-4.66Z"/><path d="M37.49,39.38c.82.07,1.4.41,1.47,1.28.06.66-.06,1.4-.73,1.68l.88,1.93h-1.09l-.76-1.72h-.59v1.72h-1.01l-.06-.06v-4.78l.06-.06c.6.04,1.25-.05,1.83,0ZM36.66,41.67h.78c.05,0,.3-.14.34-.19.18-.22.18-.8,0-1.03-.05-.06-.29-.19-.34-.19h-.78v1.41Z"/><path d="M52.09,39.38c.94.07,1.48.49,1.51,1.47.02.62-.15,1.21-.73,1.5l.84,1.92h-1.11l-.69-1.72h-.65v1.72h-1.03v-4.89h1.85ZM52.09,40.26c-.24-.04-.57.03-.82,0v1.41h.78c.25,0,.46-.28.48-.51.04-.37,0-.83-.44-.9Z"/><polygon points="15.91 39.38 15.91 41.37 17.29 41.37 17.29 39.44 17.34 39.38 18.36 39.38 18.36 44.27 17.34 44.27 17.29 44.21 17.29 42.28 15.91 42.28 15.91 44.27 14.9 44.27 14.84 44.21 14.84 39.44 14.9 39.38 15.91 39.38"/><path d="M87.92,44.27l1.2-4.85,1.45-.04,1.21,4.89h-1.01l-.29-1.01h-1.27s-.22,1.01-.22,1.01h-1.07ZM90.29,42.4l-.44-1.99-.44,1.99h.88Z"/><path d="M63.77,44.27l1.16-4.86,1.42-.04,1.28,4.89h-1.07l-.25-1.03h-1.27s-.25,1.03-.25,1.03h-1.01ZM65.27,42.4h.8l.04-.08-.46-1.91-.42,1.91.04.08Z"/><path d="M79.21,44.27l1.24-4.89,1.4.02,1.22,4.87h-1.07l-.25-1.03h-1.27s-.25,1.03-.25,1.03h-1.01ZM80.72,42.4h.8l.04-.08-.46-1.91-.43,1.91.04.08Z"/><polygon points="60.04 15.23 62.31 17.46 60.07 19.7 57.8 17.46 60.04 15.23"/><path d="M76.11,44.27h-1.03v-4.89h1.82c.5,0,1.17.27,1.4.74s.22,1.57-.09,2.03c-.18.26-.73.6-1.04.6h-.99l-.06.06v1.47ZM76.11,41.9h.78s.25-.11.28-.14c.28-.21.3-.96.13-1.24-.06-.11-.3-.27-.42-.27h-.78v1.64Z"/><polygon points="100.61 39.38 100.61 40.3 98.78 40.3 98.78 41.37 100.46 41.37 100.23 42.25 98.78 42.25 98.78 43.39 100.61 43.39 100.61 44.27 97.76 44.27 97.71 44.21 97.71 39.44 97.76 39.38 100.61 39.38"/><path d="M62.54,12.17c-.4,2.89-4.58,2.89-4.97,0h4.97Z"/><polygon points="60.55 39.38 61.43 41.44 62.2 39.38 63.34 39.38 61.93 42.53 61.93 44.21 61.87 44.27 60.86 44.27 60.86 42.53 59.45 39.38 60.55 39.38"/><polygon points="29.75 39.38 29.52 40.3 28.48 40.3 28.48 44.27 27.45 44.27 27.45 40.3 26.34 40.3 26.34 39.38 29.75 39.38"/><polygon points="85.32 39.38 85.32 43.39 87.08 43.39 86.89 44.27 84.29 44.27 84.29 39.38 85.32 39.38"/><polygon points="69.88 39.38 69.88 43.39 71.64 43.39 71.45 44.27 68.85 44.27 68.85 39.38 69.88 39.38"/><polygon points="20.92 39.38 20.92 44.27 19.9 44.27 19.85 44.21 19.85 39.44 19.9 39.38 20.92 39.38"/><polygon points="40.53 44.27 40.53 39.44 40.58 39.38 41.54 39.38 41.6 39.44 41.6 44.21 41.54 44.27 40.53 44.27"/><path d="M59.71,9.34v2.14h-2.14c.11-1.1,1.05-2.01,2.14-2.14Z"/><path d="M62.54,11.48h-2.14v-2.14c1.09.13,2.03,1.04,2.14,2.14Z"/><path d="M63.14,14.32c1.36-.19,1.57,1.86.29,2.01-1.38.16-1.56-1.84-.29-2.01Z"/><path d="M48.12,13.02c1.41-.22,1.64,1.88.29,2.01s-1.52-1.82-.29-2.01Z"/><path d="M56.68,14.32c1.35-.16,1.55,1.85.29,2.01-1.38.18-1.58-1.86-.29-2.01Z"/><path d="M71.63,13.02c1.41-.2,1.6,1.88.29,2.01s-1.52-1.84-.29-2.01Z"/><path d="M53.89,13.1c1.5-.22,1.59,1.94.25,2.01-1.27.07-1.44-1.84-.25-2.01Z"/><path d="M51.14,12.33c1.29-.1,1.47,1.85.25,2.01-1.44.19-1.59-1.91-.25-2.01Z"/><path d="M73.23,20.55c1.38-.23,1.69,1.64.51,1.96-1.39.38-1.77-1.75-.51-1.96Z"/><path d="M46.4,20.55c1.55-.26,1.66,1.95.29,2.01-1.26.05-1.4-1.82-.29-2.01Z"/><path d="M48.05,22.73c1.3-.07,1.43,1.86.25,2.01-1.5.2-1.58-1.94-.25-2.01Z"/><path d="M68.8,12.33c1.3-.11,1.48,1.87.25,2.01-1.46.17-1.55-1.9-.25-2.01Z"/><path d="M65.82,13.1c1.49-.23,1.6,1.94.25,2.01-1.26.06-1.44-1.83-.25-2.01Z"/><path d="M71.94,22.73c1.29-.07,1.44,1.85.25,2.01-1.48.21-1.59-1.94-.25-2.01Z"/><path d="M46.17,15.12c1.78-.3,1.51,2.47-.09,1.94-.98-.32-.84-1.79.09-1.94Z"/><path d="M73.46,15.12c1.37-.23,1.7,1.6.54,1.95-1.41.42-1.78-1.74-.54-1.95Z"/><path d="M73.96,17.91c1.2-.2,1.74,1.24.8,1.83-.73.47-1.67-.15-1.55-1.01.05-.35.38-.76.74-.82Z"/><path d="M45.64,17.91c1.22-.2,1.74,1.28.78,1.85-.74.44-1.64-.18-1.52-1.03.05-.34.4-.76.74-.82Z"/></g></svg>