<?xml version="1.0" encoding="UTF-8"?><svg id="Layer_1" xmlns="http://www.w3.org/2000/svg" viewBox="0 0 120 48"><path d="M88.45,25.98v8.56h-2.32s-.03-.86-.03-.86c-.25.51-.84.92-1.4.99-4.18.55-3.53-7.78.75-5.91l.62.54v-3.32h2.39ZM85.04,30.04c-.93.21-.92,2.71-.09,3.04,1.2.48,1.19-1.44,1.09-2.16-.07-.53-.42-1.02-1.01-.89Z"/><path d="M62.5,10.84l7.42.02c.06.18.25.37.05.52l-5.87,4.29,2.23,7.04c-.17.14-.3.31-.54.14l-4.38-3.17c-.18.23-.42.19-.66.28-.28.11-.32.25-.75.25s-.47-.15-.75-.25c-.23-.08-.51-.1-.75-.25l-4.4,3.17c-.19.11-.32-.12-.5-.16l2.26-7.11-5.95-4.29.11-.46,7.43-.04,2.3-7.01.53.07,2.23,6.96ZM60.49,13.57c.12-.61.64-2.14-.36-2.26-1.22-.14-.87,1.58-.63,2.25h.99ZM58.56,13.83c-.04-.57.2-1.42-.32-1.82-.56-.44-1.1.11-1.07.73.02.41.41.83.5,1.23l.12.05.77-.2ZM62.54,12c-.29-.24-.76-.14-.97.16-.4.55-.06,1.09-.21,1.68l.93.2c.14-.57.89-1.5.25-2.04ZM60.5,14.43c.14-.71-.53-.4-1-.46v.46h1ZM58.7,14.24l-.93.13v.4s.93-.17.93-.17v-.36ZM62.15,14.37l-.81-.14-.11.4.93.13v-.39ZM60.62,14.84h-1.32c-.38,1.4-.93,2.42-.37,3.9.22.57.52,1.3,1.24,1.18.36-.06.68-.73.81-1.05.6-1.49.18-2.62-.37-4.04ZM59.1,19.61c-.1-.33-.31-.61-.42-.94-.25-.76-.26-1.47-.08-2.24.06-.27.56-1.38.37-1.53l-1.19.27c-.15,1.33-.37,2.41.4,3.6.09.14.75.99.92.84ZM62.14,15.18l-1.04-.25c-.18,0-.15.19-.12.32.05.31.3.75.38,1.08.29,1.15.14,2.29-.53,3.28.27.2,1-.9,1.12-1.11.6-1.1.4-2.14.2-3.32Z"/><path d="M51.97,35.53c1.85.23,2.8,2.26,1.36,3.61l-.86.44c.66.11,1.26.44,1.56,1.06l.23.8v-1.09c0-.06.19-.59.23-.7.64-1.58,2.56-2.01,4.1-1.64,3.21.76,2.93,5.83-.51,6.15-1.95.18-3.2-.48-3.75-2.36-.03-.1.04-.12-.13-.1.04.98-.66,1.81-1.56,2.13-.12.04-.66.2-.73.2h-4.98l-.09-.1s.05-.05.05-.07v-8.33h5.08ZM49.34,38.92h1.29c.33,0,.73-.5.74-.84s-.32-.89-.67-.89h-1.36v1.73ZM58.09,42.41c.54-.52.56-2.83-.41-2.96-1.27-.17-1.26,2.17-.79,2.85.27.39.87.44,1.2.11ZM50.71,40.45c-.4-.06-.94.05-1.36,0v1.92h1.43c.27,0,.71-.41.76-.7.1-.63-.18-1.12-.83-1.22Z"/><path d="M55.52,28.63l.9,3.98.83-3.98,4.32.03.73,3.62.76-3.58,1.96-.06.83,3.65.63-3.65h2.26l-1.57,5.91h-2.28s-.8-3.39-.8-3.39l-.94,3.37-2.25-.02-1.46-5.21c-.58,1.66-1.06,3.36-1.66,5.01s-1.17,2.98-3.12,3.02c0-.74-.44-1.3-.93-1.79.5-.08,1.49-.44,1.38-1.08l-2.24-5.82h2.66Z"/><polygon points="34.01 29.36 36.73 29.36 36.73 26.11 39.09 26.11 39.19 26.21 39.19 34.54 36.73 34.54 36.73 31.22 34.01 31.22 34.01 34.54 31.55 34.54 31.55 26.21 31.65 26.11 33.91 26.11 34.01 26.21 34.01 29.36"/><path d="M62.76,38.06l.63,3.78.82-3.74,1.92-.03.87,3.77.6-3.78h2.26l-1.54,5.96h-2.31s-.83-3.51-.83-3.51l-.86,3.45c-.13.15-1.95.03-2.28.06l-1.54-5.96h2.26Z"/><path d="M77.81,28.52c1.93-.21,3.72.63,3.86,2.74.16,2.45-1.58,3.64-3.88,3.42-3.51-.34-3.72-5.75.02-6.15ZM78.21,30.04c-.95.2-.9,2.49-.32,2.94.49.38,1.05.14,1.27-.4.29-.74.28-2.8-.95-2.54Z"/><path d="M71.11,28.52c2.25-.24,4.02.93,3.86,3.33-.24,3.8-6.2,3.78-6.56.19-.19-1.87.78-3.31,2.7-3.52ZM71.5,30.04c-.8.16-.77,1.45-.71,2.07.1,1.05,1.19,1.51,1.63.5.32-.75.34-2.83-.91-2.57Z"/><path d="M42.49,28.52c1.87-.18,3.63.63,3.8,2.67.2,2.5-1.56,3.75-3.93,3.46-3.51-.42-3.63-5.76.13-6.13ZM42.82,30.04c-.87.18-.84,1.97-.56,2.59.34.76,1.27.69,1.54-.08s.25-2.76-.98-2.51Z"/><rect x="70.26" y="35.34" width="2.39" height="8.69"/><rect x="46.82" y="25.98" width="2.39" height="8.56"/><rect x="50.21" y="25.98" width="2.39" height="8.56"/></svg>