<?xml version="1.0" encoding="UTF-8"?><svg id="Layer_1" xmlns="http://www.w3.org/2000/svg" viewBox="0 0 120 48"><path d="M75.25,10.5c.06.05.1.2.22.14,1.23-1,2.67-1.73,4.21-2.14,5.06-1.33,11.22-.06,13.15,5.33,1.14,3.19.34,7.82-.63,11.01-1.59,5.18-4.42,11.95-9.74,14.21-3.96,1.68-9.85,1.36-12.88-1.96-.08-.09-.23-.14-.25-.3-.11-.08-.4.26-.49.33-1.84,1.42-3.81,2.37-6.13,2.75-3,.49-6.32.07-8.75-1.85-.03-.02-.06-.02-.09-.02-.11,0-.78.47-.95.56-.89.49-1.9.86-2.89,1.09-3.23.75-6.89.52-9.64-1.46-.7.48-1.49.86-2.3,1.13-5.48,1.8-12.61.08-12.88-6.68-.15-3.92,1.86-9.33,3.39-12.94.92-2.17,1.99-4.48,3.18-6.51,2.25-3.86,5.17-5.58,9.78-5,1.46.19,2.95.72,3.62,2.13,1.09-.87,2.32-1.5,3.67-1.86,2.2-.57,5.53-.76,7.74-.27,1.27.28,2.43.86,3.44,1.67,1.46-.91,3.17-1.47,4.87-1.71,3.53-.52,7.59-.06,10.36,2.33ZM69.52,33.78s.06-.02.08-.04c.14.29.26.61.42.91,1.86,3.37,5.99,3.99,9.49,3.36,4.83-.88,7.41-4.81,9.19-9.02,2.31-5.48,5.94-16.72-2.49-18.77-3.77-.92-8.18.03-10.82,2.97-.06.07-.22.35-.29.33-.13-.12-.17-.32-.26-.47-1.84-2.94-5.96-3.47-9.14-3.14-2.14.23-4.25,1.01-5.9,2.39-.34-.44-.7-.84-1.15-1.17-1.73-1.28-4.15-1.42-6.23-1.3-3.21.19-5.98,1.09-7.85,3.84-.05.07-.07.15-.11.22l-.09-.28c.06-2.32-1.67-3.51-3.82-3.63-4.45-.25-6.02,1.93-7.89,5.49-1.69,3.23-3.24,6.89-4.34,10.36-1.14,3.58-2.63,8.84,1.25,11.3,2.25,1.42,6.25,1.23,8.63.2.83-.36,1.57-.88,2.24-1.48.08,0,.15.16.22.22,2.05,1.9,4.69,2.37,7.41,2.06,2.13-.24,4.32-1,5.79-2.62,1.03,1.23,2.44,2.07,4,2.45,4.35,1.06,8.74-.72,11.58-4.02.04-.05.05-.13.08-.16Z"/><path d="M58.8,11.9c.33.31.58.73.82,1.12.01.02,0,.07.06.05.08-.03.38-.36.48-.44,2.88-2.34,7.67-2.96,11.13-1.7,1.73.63,3,1.76,3.65,3.5.09,0,.53-.59.63-.7,1.29-1.43,2.78-2.41,4.65-2.95s4.66-.55,6.52.11c6.27,2.21,4.23,10.21,2.6,14.94-1.39,4.04-3.47,9.06-7.61,10.93-3.43,1.55-8.92,1.47-11.1-2.07-.39-.63-.56-1.23-.83-1.9-.04-.11-.09-.06-.15,0-.16.17-.33.47-.48.66-.96,1.17-2.11,2.17-3.44,2.9-3.72,2.03-9.17,2.13-11.84-1.63-1.18,1.46-2.91,2.33-4.73,2.71-2.54.53-5.53.36-7.64-1.3-.39-.31-.71-.69-1.06-1.04-.39.34-.75.72-1.18,1.02-2.25,1.62-6.57,2.06-9.04.8-3.96-2.02-2.65-7-1.63-10.4.99-3.3,2.47-6.77,4-9.86s2.93-6.04,6.76-6.22c1.06-.05,2.41.08,3.31.67,1.54,1.01,1.12,2.83,1.28,4.42.48-.61.81-1.33,1.27-1.95,1.79-2.39,4.55-3.17,7.44-3.28,2.07-.08,4.54.09,6.12,1.6ZM57.33,12.97c-1.5-1.33-5.2-1.1-7.04-.63-3.15.82-4.66,3.55-5.93,6.3-1.03,2.23-1.94,4.69-2.59,7.06-1.01,3.68-2.01,8.44,2.61,9.96,2.72.89,8.03.03,8.76-3.28.68-3.09-1.9-3.42-4.28-3.21-.73.07-1.43.33-2.12.43-.03,0-.11.03-.12,0l1.1-3.5c.08-.05.71.11.87.13,2.38.3,4.76.08,5.63-2.51,1-3-1.98-3.01-4.05-2.83-.08,0-.64.12-.64.06.38-.99.85-1.93,1.37-2.85l2.71-.04c1.89-.07,4.06-.75,4.42-2.87.15-.88-.02-1.6-.7-2.2ZM72.41,19.31c.9-1.26,1.31-3.6.54-4.99-1.36-2.44-5.77-2.52-8.16-1.99-4.27.94-6.32,4.72-7.9,8.43-1.2,2.81-2.79,7.57-2.37,10.59.53,3.82,3.84,5.1,7.34,4.55,4.73-.74,7.84-4.94,8.74-9.43.33-1.65.48-3.6-1.38-4.33-1.24-.48-3.68-.33-4.79.44-1,.7-2.12,3.06-.77,3.9.38.24.88.32,1.32.4-.17.65-.4,1.28-.73,1.87-.46.79-1.39,1.74-2.35,1.82-2.22.19-1.66-2.04-1.3-3.43.5-1.93,1.24-3.94,2-5.78.53-1.28,1.52-3.74,2.83-4.32.47-.21,1.69-.38,1.96.19.19.4-.18,1.05-.26,1.46-.22,1.12.27,1.79,1.35,2.02,1.39.29,3.09-.21,3.93-1.4ZM87.89,13.48c-1.91-1.77-5.83-1.63-8.11-.7-3.43,1.39-4.99,5.42-6.2,8.65-1.08,2.9-2.35,6.9-2.16,10,.26,4.1,4.36,5.06,7.79,4.39s5.37-3.38,6.84-6.39c1.43-2.92,2.58-6.29,3.09-9.51.33-2.08.43-4.89-1.26-6.44ZM41.52,12.74c-.83-.81-2.85-.56-3.81-.09-1.51.74-2.56,2.91-3.3,4.37-1.66,3.27-3.24,7.08-4.25,10.6-.87,3.05-2.06,7.46,2.3,8.21,3.01.52,7.27-.52,7.67-4.1.25-2.19-1.58-2.41-3.3-2.37-.36,0-.77.12-1.14.14-.06,0-.06,0-.06-.06,1.79-3.78,3.7-7.51,5.27-11.39.41-1.28,1.77-4.2.62-5.31Z"/><path d="M91.64,8.62c.65-.84,2.01-.86,2.71-.07,1.04,1.17.22,3.01-1.34,3.01s-2.27-1.77-1.37-2.94ZM93.94,8.65c-1.43-1.19-3.31,1.06-1.78,2.24s3.17-1.08,1.78-2.24Z"/><path d="M93.41,8.83s.18.08.2.1c.39.26.24.9-.22.95.26.21.37.52.55.79-.13.03-.32.07-.44.02-.2-.09-.35-.99-.81-.66v.59s.04.03.02.06c-.06.08-.3.02-.39,0v-1.84c.32.04.78-.06,1.09,0ZM93.23,9.16c-.15-.03-.37.02-.53,0v.48c.18,0,.59.05.69-.14.08-.14,0-.31-.16-.34Z"/><path d="M79.67,29.85c-.45.59-1.34,1.08-2.06.64-.84-.51-.36-2.12-.17-2.89.38-1.51.95-3.13,1.49-4.59s1.16-3.12,1.87-4.47c.51-.96,1.03-1.74,2.26-1.61,1.35.14.63,2.34.41,3.18-.51,1.94-1.25,4-1.98,5.87-.44,1.13-1.1,2.93-1.82,3.87Z"/></svg>