<?xml version="1.0" encoding="UTF-8"?><svg id="Layer_1" xmlns="http://www.w3.org/2000/svg" viewBox="0 0 120 48"><path d="M28.02,18.54c.82.26,1.31.61,1.43,1.51.16,1.18.17,5.57-.02,6.72-.31,1.81-2.69,1.31-4.04,1.4v1.3s-1.97,0-1.97,0v-1.3h-2.17s-.76-.16-.86-.19c-.48-.16-.68-.38-.85-.85-.35-.99-.31-5.6-.16-6.78.12-.99.39-1.52,1.41-1.79h7.22ZM27.36,20.23h-5.78v6.11h1.84v-1.04h1.97l.12.98,1.85.06v-6.11Z"/><path d="M16.33,18.54c1.27.27,1.43,1.34,1.44,2.47h-1.97v-.78h-6.04v1.88c.12.19.26.18.45.2,1.9.22,4.28-.24,6.18,0,1.23.15,1.42,1.1,1.51,2.15.07.95.09,3.06-.95,3.47-.94.38-6.02.33-7.25.23s-2.26-.37-2.17-1.82h8.41v-2.21h-6.5c-.3,0-.99-.38-1.18-.65-.47-.7-.46-3.26-.14-4.02.27-.63.69-.66,1.25-.91h6.96Z"/><path d="M61.38,18.54c1.68.3,1.55,2.37,1.45,3.71-.15,2.11-.89,2.23-2.9,2.33.94,1.06,2.08,1.94,3.09,2.92.18.18.48.37.46.65h-2.69c-.24,0-2.86-3.12-3.28-3.52l-1.65-.12v3.64h-1.9l-.2-.45v-9.17h7.62ZM60.27,20.23c-1.24-.22-3.09.16-4.4,0v2.6h4.4c.63,0,.72-2.47,0-2.6Z"/><path d="M33.27,18.54v7.35s.2.45.2.45h4.93v-7.8h2.23c-.13,2.31.17,4.79,0,7.09-.05.75-.16,1.98-.96,2.3-.91.36-5.19.32-6.34.23-1.28-.11-2.01-.36-2.17-1.75v-7.86h2.1Z"/><path d="M88.57,18.54l5.78,6.63-.13-6.63h1.97l-.06,9.5c-.15.21-1.2.19-1.46,0l-5.71-6.51v6.63h-1.84v-9.62h1.44Z"/><path d="M47.98,18.54l4.86,9.62h-2.04l-1.14-2.06-5.54-.03-1.07,2.08h-1.9l4.86-9.62h1.97ZM48.77,24.26c-.17-.27-1.76-3.93-1.97-3.77l-1.71,3.77h3.68Z"/><path d="M103.94,18.54c.39.4,2.48,3.16,2.81,3.11l2.58-3.11h2.36l-3.79,4.35,4.57,5.26h-2.56l-3.28-3.77-3.02,3.77h-2.3l4.06-4.89-4.06-4.73h2.63Z"/><path d="M85.42,18.54v1.69h-6.04v6.11h6.17c-.08.58.21,1.37-.2,1.82h-8.08v-9.62h8.14Z"/><path d="M72.81,18.54c-.07.54.2,1.28-.2,1.69h-5.85v6.11h6.04v1.82h-8.14v-9.62h8.14Z"/><path d="M100.13,18.54l-.02,9.4c-.11.34-2.03.28-2.16.09l-.06-9.5h2.23Z"/><rect x="81.22" y="22.31" width="3.42" height="1.82" fill="#ed1c24"/><path d="M72.02,22.31c-.08.58.21,1.37-.2,1.82h-3.22v-1.82h3.42Z" fill="#ed1c24"/></svg>